<?xml version="1.0"?>
<svg xmlns="http://www.w3.org/2000/svg" id="Capa_1" enable-background="new 0 0 508.068 508.068" height="512px" viewBox="0 0 508.068 508.068" width="512px" class="hovered-paths"><g><g><path d="m205.043 159.875-38.585-55.416 67.559.191-6.078-67.285 58.411 33.945 28.379-61.31 33.614 58.603 55.231-38.907-.191 67.559 67.285-6.078-33.945 58.412 61.31 28.379-58.536 33.575 38.585 55.416-67.559-.191c3.238 86.524-136.705 44.414-202.707-44.939l-61.31-28.378z" fill="#ffea60" data-original="#FFEA60" class="" data-old_color="#ffea60" style="fill:#FEEC75"/><path d="m352.032 464.959c.003-14.24 0-56.959 0-56.959s-37.109 21.162-49.477 28.219c-12.705 7.25-19.474 22.373-15.552 37.182 4.683 17.647 22.787 28.163 40.436 23.488 14.807-3.93 24.59-17.302 24.593-31.93zm-120 0c.003-14.24 0-56.959 0-56.959s-37.109 21.162-49.477 28.219c-12.705 7.25-19.474 22.373-15.552 37.182 4.683 17.647 22.787 28.163 40.436 23.488 14.807-3.93 24.59-17.302 24.593-31.93zm-120 0c.003-14.24 0-56.959 0-56.959s-37.109 21.162-49.477 28.219c-12.705 7.25-19.474 22.373-15.552 37.182 4.683 17.647 22.787 28.163 40.436 23.488 14.807-3.93 24.59-17.302 24.593-31.93z" fill="#66e0f7" data-original="#66E0F7" class="" data-old_color="#66e0f7" style="fill:#7EE8FC"/><path d="m355.375 236.601c-17.135 0-33.094 5.034-46.483 13.703-13.04-57.433-64.384-100.304-125.737-100.304-71.211 0-128.939 57.755-128.939 129 0 10.894 1.35 21.472 3.891 31.577-26.607.331-48.073 22.012-48.073 48.709 0 26.904 21.799 48.713 48.69 48.713h296.651c47.308 0 85.659-38.369 85.659-85.699s-38.351-85.699-85.659-85.699z" fill="#b5b3ee" data-original="#B5B3EE" class="" data-old_color="#b5b3ee" style="fill:#CDCCF4"/><path d="m508.024 177.532c-.164-3.736-2.397-7.068-5.79-8.639l-51.351-23.769 28.431-48.923c1.879-3.233 1.797-7.244-.212-10.397-2.01-3.154-5.608-4.921-9.334-4.586l-56.354 5.091.16-56.584c.011-3.739-2.066-7.172-5.382-8.898-3.317-1.726-7.32-1.458-10.376.695l-46.259 32.586-28.154-49.084c-1.86-3.244-5.375-5.175-9.11-5.015-3.736.164-7.068 2.397-8.639 5.79l-23.769 51.35-48.923-28.43c-3.233-1.878-7.244-1.796-10.397.212-3.153 2.009-4.923 5.61-4.586 9.334l5.091 56.354-56.583-.16h-.028c-3.718 0-7.131 2.063-8.857 5.358-1.731 3.303-1.48 7.295.651 10.355l20.809 29.886c-26.614.769-52.165 9.052-74.146 24.061-11.014 7.52.266 24.04 11.28 16.52 19.771-13.499 42.93-20.64 66.96-20.64h.05c55 0 103.76 38.91 115.94 92.52.72 3.18 2.96 5.82 5.98 7.05 3 1.22 6.48.89 9.2-.87 12.23-7.91 26.5-12.1 41.13-12.1 41.742 0 75.58 33.892 75.58 75.7s-33.838 75.7-75.58 75.7h-296.732c-21.445 0-38.69-17.14-38.69-38.71 0-21.09 17.13-38.46 38.2-38.71 3.08-.04 5.92-1.46 7.8-3.9s2.551-5.558 1.77-8.54c-6.834-26.107-2.093-51.021.86-61.49 3.603-12.771-15.647-18.201-19.25-5.43-3.453 12.24-7.541 31.651-3.31 60.72-26.277 5.817-46.07 29.436-46.07 57.35 0 32.373 26.328 58.71 58.69 58.71h15.587c-6.716 3.83-12.894 7.354-16.712 9.533-16.924 9.657-25.52 29.643-20.262 48.433 6.148 21.969 28.406 37.066 52.667 30.589 18.726-5 32.024-22.108 32.028-41.595.002-9.873.001-33.436 0-46.96h72.329c-6.716 3.83-12.894 7.354-16.713 9.533-16.924 9.657-25.52 29.643-20.262 48.433 6.148 21.969 28.406 37.066 52.667 30.589 18.726-5 32.024-22.108 32.028-41.595.002-9.873.001-33.436 0-46.96h72.278c-6.716 3.83-12.894 7.354-16.713 9.533-16.924 9.657-25.52 29.643-20.262 48.433 6.148 21.969 28.406 37.066 52.667 30.589 18.726-5 32.024-22.108 32.028-41.595.002-9.93.001-33.708 0-47.192 49.664-3.446 88.951-44.856 88.951-95.468 0-16.448-4.142-31.928-11.438-45.45l38.459.108h.028c3.718 0 7.131-2.063 8.857-5.358 1.731-3.303 1.48-7.295-.651-10.356l-32.348-46.458 49.068-28.144c3.247-1.859 5.182-5.374 5.019-9.109zm-405.992 287.425c-.002 10.428-7.056 19.583-17.154 22.266-12.293 3.253-24.949-4.095-28.209-16.382-2.675-10.103 1.783-20.768 10.841-25.937 7.194-4.104 22.759-12.982 34.522-19.69.001 13.542.002 31.461 0 39.743zm120.05 0c-.002 10.428-7.056 19.583-17.154 22.266-12.293 3.253-24.949-4.095-28.209-16.382-2.675-10.103 1.783-20.768 10.841-25.937 7.194-4.104 22.759-12.982 34.522-19.69.001 13.542.002 31.461 0 39.743zm120 0c-.002 10.428-7.056 19.583-17.154 22.266-12.293 3.253-24.949-4.095-28.209-16.382-2.675-10.103 1.783-20.768 10.841-25.937 7.194-4.104 22.759-12.982 34.522-19.69.001 13.542.001 31.461 0 39.743zm110.221-362.081-20.585 35.422c-5.042-11.641-11.878-22.326-20.275-31.731zm-58.784-53.865-.116 41.114c-2.551-1.888-5.189-3.685-7.91-5.385-8.123-5.076-16.693-9.11-25.552-12.077zm-77.84-17.257 20.413 35.587c-12.411-1.442-25.089-.916-37.646 1.644zm-40.619 44.56c-11.644 5.019-22.345 11.838-31.745 20.122l-3.678-40.707zm-48.532 38.315c-6.402 8.563-11.69 18.024-15.642 28.176-2.099-.429-4.213-.811-6.339-1.144l-18.902-27.148zm88.605 120.831c-13.69-41.514-45.656-73.027-84.886-87.207 12.189-29.585 38.109-51.837 69.607-59.109 53.408-12.328 106.894 21.089 119.225 74.5 6.174 26.743 1.146 54.299-13.782 76.956-14.512-8.901-31.579-14.032-49.843-14.032-14.405 0-28.071 3.177-40.321 8.892zm143.763 21.444-33.729-.095c-1.285-1.372-2.61-2.706-3.974-4 6.202-9.167 11.039-19.023 14.45-29.3zm-17.94-57.727c1.355-12.335.778-24.955-1.825-37.454l37.147 17.194zm-372.456 4.451c0-5.521 4.476-9.998 9.998-9.998s9.998 4.477 9.998 9.998c0 5.522-4.476 9.999-9.998 9.999s-9.998-4.477-9.998-9.999z" data-original="#000000" class="active-path" data-old_color="#000000" style="fill:#212121"/></g></g> </svg>
