<?xml version="1.0"?>
<svg xmlns="http://www.w3.org/2000/svg" id="Capa_1" enable-background="new 0 0 512 512" height="512px" viewBox="0 0 512 512" width="512px" class="hovered-paths"><g><g id="XMLID_2276_"><path id="XMLID_1017_" d="m146 232c0 37.555-30.445 68-68 68s-68-30.445-68-68z" fill="#f6838d" data-original="#F6838D" class="hovered-path active-path" data-old_color="#f6838d" style="fill:#B29DC1"/><path id="XMLID_1016_" d="m366 232c0 37.555 30.445 68 68 68s68-30.445 68-68z" fill="#f6838d" data-original="#F6838D" class="hovered-path active-path" data-old_color="#f6838d" style="fill:#B29DC1"/><path id="XMLID_1615_" d="m60 454h392v48h-392z" fill="#ffcb7c" data-original="#FFCB7C" class="" data-old_color="#ffcb7c" style="fill:#C9B18D"/><path id="XMLID_1614_" d="m108 406h296v48h-296z" fill="#ffe6c0" data-original="#FFE6C0" class="" data-old_color="#ffe6c0" style="fill:#D7C4A8"/><path id="XMLID_1714_" d="m232 406v-372c0-13.255 10.745-24 24-24 13.255 0 24 10.745 24 24v372z" fill="#ffcb7c" data-original="#FFCB7C" class="" data-old_color="#ffcb7c" style="fill:#C9B18D"/><g id="XMLID_14_"><path id="XMLID_29_" d="m434 310c43.009 0 78-34.99 78-78 0-1.327-.264-2.591-.734-3.75.001-.001.002-.001.003-.002l-.041-.101c-.008-.02-.016-.04-.024-.06l-62.368-154.087h33.161c16.542 0 30-13.458 30-30s-13.458-30-30-30c-5.523 0-10 4.477-10 10s4.477 10 10 10c5.514 0 10 4.486 10 10s-4.486 10-10 10h-191.997v-20c0-18.748-15.252-34-34-34s-34 15.252-34 34v20h-192c-5.514 0-10-4.486-10-10s4.486-10 10-10c5.523 0 10-4.477 10-10s-4.477-10-10-10c-16.542 0-30 13.458-30 30s13.458 30 30 30h33.164l-62.369 154.088c-.008.02-.016.04-.024.06l-.041.101.003.001c-.469 1.158-.733 2.423-.733 3.75 0 43.01 34.991 78 78 78s78-34.99 78-78c0-1.327-.264-2.592-.734-3.75.001 0 .002-.001.003-.001l-.041-.101c-.008-.02-.016-.04-.024-.06l-62.368-154.088h129.164v322h-114c-5.523 0-10 4.478-10 10v38h-38c-5.523 0-10 4.478-10 10v48c0 5.522 4.477 10 10 10h392c5.523 0 10-4.478 10-10v-48c0-5.522-4.477-10-10-10h-38v-38c0-5.522-4.477-10-10-10h-114v-118.999c0-5.522-4.477-10-10-10s-10 4.478-10 10v118.999h-28v-362c0-7.72 6.28-14 14-14s14 6.28 14 14v153c0 5.523 4.477 10 10 10s10-4.477 10-10v-113h129.164l-62.369 154.088c-.008.02-.016.04-.024.06l-.041.101c.001 0 .002.001.003.001-.47 1.159-.734 2.423-.734 3.751.001 43.009 34.992 77.999 78.001 77.999zm-356-20c-28.571 0-52.384-20.769-57.137-48h114.274c-4.753 27.231-28.566 48-57.137 48zm-53.164-68 53.164-131.347 53.164 131.347zm417.164 270h-372v-28h372zm-48-76v28h-276v-28zm40-325.347 53.164 131.347h-106.328zm57.137 151.347c-4.753 27.231-28.566 48-57.137 48s-52.384-20.769-57.137-48z" data-original="#000000" class="" style="fill:#000000"/><path id="XMLID_381_" d="m280 222c-2.63 0-5.21 1.07-7.07 2.93s-2.93 4.44-2.93 7.07 1.07 5.21 2.93 7.07 4.44 2.93 7.07 2.93 5.21-1.07 7.07-2.93 2.93-4.44 2.93-7.07-1.07-5.21-2.93-7.07-4.44-2.93-7.07-2.93z" data-original="#000000" class="" style="fill:#000000"/></g></g></g> </svg>
