<?xml version="1.0"?>
<svg xmlns="http://www.w3.org/2000/svg" viewBox="0 0 512 512" width="512px" height="512px" class="hovered-paths"><g><path d="m437 0h-362c-41.398438 0-75 34.601562-75 76v361c0 41.398438 33.601562 75 75 75h362c41.398438 0 75-33.601562 75-75v-361c0-41.398438-33.601562-76-75-76zm0 0" fill="#25d9f8" data-original="#25D9F8" class="active-path" style="fill:#4C5076" data-old_color="#25d9f8"/><path d="m512 76v361c0 41.398438-33.601562 75-75 75h-181v-512h181c41.398438 0 75 34.601562 75 76zm0 0" fill="#00c0f1" data-original="#00C0F1" class="" style="fill:#4C5076" data-old_color="#00c0f1"/><g fill="#ececf1"><path d="m121 196h60v211h-60zm0 0" data-original="#ECECF1" class="" data-old_color="#ECECF1" style="fill:#FFFFFF"/><path d="m121 106h60v60h-60zm0 0" data-original="#ECECF1" class="" data-old_color="#ECECF1" style="fill:#FFFFFF"/><path d="m391 275.800781v131.199219h-60v-121c0-16.5-13.5-30-30-30s-30 13.5-30 30v121h-60v-211h60v11.398438c15.601562-5.097657 25.800781-11.398438 45-11.398438 40.800781 0 75 36.597656 75 79.800781zm0 0" data-original="#ECECF1" class="" data-old_color="#ECECF1" style="fill:#FFFFFF"/></g><path d="m391 275.800781v131.199219h-60v-121c0-16.5-13.5-30-30-30s-30 13.5-30 30v121h-15v-211h15v11.398438c15.601562-5.097657 25.800781-11.398438 45-11.398438 40.800781 0 75 36.597656 75 79.800781zm0 0" fill="#e2e2e7" data-original="#E2E2E7" class="" data-old_color="#e2e2e7" style="fill:#FFFFFF"/></g> </svg>
