<?xml version="1.0"?>
<svg xmlns="http://www.w3.org/2000/svg" xmlns:xlink="http://www.w3.org/1999/xlink" version="1.1" id="Capa_1" x="0px" y="0px" viewBox="0 0 496.485 496.485" style="enable-background:new 0 0 496.485 496.485;" xml:space="preserve" width="512px" height="512px" class=""><g><rect x="54.303" y="7.758" style="fill:#FDBF5E;" width="352.97" height="480.194" data-original="#FDBF5E" class=""/><path style="fill:#193651;" d="M407.273,496.485H54.303c-4.655,0-7.758-3.103-7.758-7.758V7.758C46.545,3.103,49.648,0,54.303,0  h352.97c4.655,0,7.758,3.103,7.758,7.758v480.97C415.03,492.606,411.152,496.485,407.273,496.485z M62.061,480.97h337.455V15.515  H62.061V480.97z" data-original="#193651" class=""/><g>
	<rect x="84.798" y="39.323" style="fill:#FFFFFF" width="290.909" height="418.133" data-original="#FFFFFF" class="" data-old_color="#FFFFFF"/>
	<path style="fill:#FFFFFF" d="M79.903,65.164h-51.2c-11.636,0-20.945,9.309-20.945,20.945s9.309,20.945,20.945,20.945h50.424   c11.636,0,20.945-9.309,20.945-20.945C100.848,74.473,91.539,65.164,79.903,65.164z" data-original="#FFFFFF" class="" data-old_color="#FFFFFF"/>
</g><path style="fill:#193651;" d="M79.903,114.812h-51.2C12.412,114.812,0,101.624,0,86.109s13.188-28.703,28.703-28.703h50.424  c16.291,0,28.703,13.188,28.703,28.703S95.418,114.812,79.903,114.812z M28.703,72.921c-7.758,0-13.188,6.206-13.188,13.188  c0,7.758,6.206,13.188,13.188,13.188h50.424c7.758,0,13.188-6.206,13.188-13.188c0-7.758-6.206-13.188-13.188-13.188H28.703z" data-original="#193651" class=""/><path style="fill:#FFFFFF" d="M79.903,172.994h-51.2c-11.636,0-20.945,9.309-20.945,20.945c0,11.636,9.309,20.945,20.945,20.945  h50.424c11.636,0,20.945-9.309,20.945-20.945C100.848,182.303,91.539,172.994,79.903,172.994z" data-original="#FFFFFF" class="" data-old_color="#FFFFFF"/><path style="fill:#193651;" d="M79.903,223.418h-51.2C13.188,223.418,0,210.23,0,193.939s13.188-28.703,28.703-28.703h50.424  c16.291,0,28.703,13.188,28.703,28.703S95.418,223.418,79.903,223.418z M28.703,180.752c-7.758,0-13.188,6.206-13.188,13.188  c0,7.758,6.206,13.188,13.188,13.188h50.424c7.758,0,13.188-6.206,13.188-13.188c0-7.758-6.206-13.188-13.188-13.188H28.703z" data-original="#193651" class=""/><path style="fill:#FFFFFF" d="M79.903,280.824h-51.2c-11.636,0-20.945,10.085-20.945,21.721c0,11.636,9.309,20.945,20.945,20.945  h50.424c11.636,0,20.945-9.309,20.945-20.945C100.848,290.909,91.539,280.824,79.903,280.824z" data-original="#FFFFFF" class="" data-old_color="#FFFFFF"/><path style="fill:#193651;" d="M79.903,331.249h-51.2C13.188,331.249,0,318.061,0,302.545c0-15.515,13.188-28.703,28.703-28.703  h50.424c16.291,0,28.703,13.188,28.703,28.703C107.83,318.061,95.418,331.249,79.903,331.249z M28.703,288.582  c-6.982,0-13.188,6.206-13.188,13.964s6.206,13.188,13.188,13.188h50.424c7.758,0,13.188-6.206,13.188-13.188  c0-7.758-6.206-13.188-13.188-13.188H28.703V288.582z" data-original="#193651" class=""/><path style="fill:#FFFFFF" d="M79.903,389.43h-51.2c-11.636,0-20.945,9.309-20.945,20.945c0,11.636,9.309,20.945,20.945,20.945  h50.424c11.636,0,20.945-9.309,20.945-20.945C100.848,398.739,91.539,389.43,79.903,389.43z" data-original="#FFFFFF" class="" data-old_color="#FFFFFF"/><path style="fill:#193651;" d="M79.903,439.079h-51.2C13.188,439.079,0,426.667,0,410.376s13.188-28.703,28.703-28.703h50.424  c16.291,0,28.703,13.188,28.703,28.703C107.83,425.891,95.418,439.079,79.903,439.079z M28.703,397.188  c-7.758,0-13.188,6.206-13.188,13.188c0,7.758,6.206,13.188,13.188,13.188h50.424c7.758,0,13.188-6.206,13.188-13.188  c0-7.758-6.206-13.188-13.188-13.188H28.703z" data-original="#193651" class=""/><path style="fill:#6FB6A2" d="M456.921,367.709h-50.424v63.612h50.424c17.842,0,31.806-13.964,31.806-31.806  C488.727,382.448,474.764,367.709,456.921,367.709z" data-original="#4FBF9F" class="active-path" data-old_color="#4FBF9F"/><path style="fill:#193651;" d="M456.921,439.079h-50.424c-4.655,0-7.758-3.103-7.758-7.758v-63.612c0-4.655,3.103-7.758,7.758-7.758  h50.424c21.721,0,39.564,17.842,39.564,39.564S478.642,439.079,456.921,439.079z M414.255,423.564h42.667  c13.188,0,24.048-10.861,24.048-24.048c0-13.188-10.861-24.048-24.048-24.048h-42.667V423.564z" data-original="#193651" class=""/><path style="fill:#FFFFFF" d="M406.497,367.709H289.358c-40.339,0-79.127,10.861-113.261,31.806  c34.133,20.945,73.697,31.806,113.261,31.806h117.139V367.709z" data-original="#FFFFFF" class="" data-old_color="#FFFFFF"/><g>
	<path style="fill:#193651;" d="M406.497,439.079H289.358c-41.115,0-82.23-11.636-117.139-33.358   c-2.327-1.552-3.879-3.879-3.879-6.982c0-3.103,1.552-5.43,3.879-6.982c35.685-21.721,76.024-33.358,117.139-33.358h117.139   c4.655,0,7.758,3.103,7.758,7.758v63.612C414.255,435.976,410.376,439.079,406.497,439.079z M191.612,399.515   c30.255,15.515,63.612,24.048,97.745,24.048h109.382v-48.097H289.358C255.224,375.467,221.091,384,191.612,399.515z" data-original="#193651" class=""/>
	<path style="fill:#193651;" d="M175.321,407.273h-14.739c-4.655,0-7.758-3.103-7.758-7.758s3.103-7.758,7.758-7.758h14.739   c4.655,0,7.758,3.103,7.758,7.758S179.976,407.273,175.321,407.273z" data-original="#193651" class=""/>
	<rect x="256.776" y="391.758" style="fill:#193651;" width="15.515" height="15.515" data-original="#193651" class=""/>
	<rect x="298.667" y="391.758" style="fill:#193651;" width="15.515" height="15.515" data-original="#193651" class=""/>
	<rect x="340.558" y="391.758" style="fill:#193651;" width="15.515" height="15.515" data-original="#193651" class=""/>
</g><g>
	<rect x="139.636" y="69.818" style="fill:#F08B80" width="41.891" height="41.891" data-original="#F16051" class="" data-old_color="#F16051"/>
	<rect x="139.636" y="143.515" style="fill:#F08B80" width="41.891" height="41.891" data-original="#F16051" class="" data-old_color="#F16051"/>
	<rect x="139.636" y="216.436" style="fill:#F08B80" width="41.891" height="41.891" data-original="#F16051" class="" data-old_color="#F16051"/>
	<rect x="139.636" y="289.358" style="fill:#F08B80" width="41.891" height="41.891" data-original="#F16051" class="" data-old_color="#F16051"/>
</g><g>
	<path style="fill:#193651;" d="M346.764,99.297H230.4c-4.655,0-7.758-3.103-7.758-7.758s3.103-7.758,7.758-7.758h115.588   c4.655,0,7.758,3.103,7.758,7.758C354.521,95.418,350.642,99.297,346.764,99.297z" data-original="#193651" class=""/>
	<path style="fill:#193651;" d="M346.764,172.218H230.4c-4.655,0-7.758-3.103-7.758-7.758c0-4.655,3.103-7.758,7.758-7.758h115.588   c4.655,0,7.758,3.103,7.758,7.758C354.521,168.339,350.642,172.218,346.764,172.218z" data-original="#193651" class=""/>
	<path style="fill:#193651;" d="M346.764,245.139H230.4c-4.655,0-7.758-3.103-7.758-7.758c0-4.655,3.103-7.758,7.758-7.758h115.588   c4.655,0,7.758,3.103,7.758,7.758C354.521,242.036,350.642,245.139,346.764,245.139z" data-original="#193651" class=""/>
	<path style="fill:#193651;" d="M346.764,318.061H230.4c-4.655,0-7.758-3.103-7.758-7.758s3.103-7.758,7.758-7.758h115.588   c4.655,0,7.758,3.103,7.758,7.758C354.521,314.958,350.642,318.061,346.764,318.061z" data-original="#193651" class=""/>
</g></g> </svg>
