<?xml version="1.0"?>
<svg xmlns="http://www.w3.org/2000/svg" xmlns:xlink="http://www.w3.org/1999/xlink" version="1.1" id="Capa_1" x="0px" y="0px" viewBox="0 0 512 512" style="enable-background:new 0 0 512 512;" xml:space="preserve" width="25px" height="25px"><g><g>
	<g>
		<g>
			<path d="M256,0C138.375,0,42.667,95.698,42.667,213.333c0,57.26,22.417,111.042,63.042,151.354l142.708,144.146     c2,2.031,4.729,3.167,7.583,3.167s5.583-1.135,7.583-3.167L406.229,364.76c40.688-40.385,63.104-94.167,63.104-151.427     C469.333,95.698,373.625,0,256,0z M391.125,349.688L256,486.177L120.813,349.615C84.167,313.26,64,264.865,64,213.333     c0-105.865,86.125-192,192-192s192,86.135,192,192C448,264.865,427.833,313.26,391.125,349.688z" data-original="#000000" class="active-path" data-old_color="#000000" fill="#FFFFFF"/>
			<path d="M256,106.667c-58.813,0-106.667,47.854-106.667,106.667S197.188,320,256,320s106.667-47.854,106.667-106.667     S314.813,106.667,256,106.667z M256,298.667c-47.063,0-85.333-38.281-85.333-85.333C170.667,166.281,208.938,128,256,128     s85.333,38.281,85.333,85.333C341.333,260.385,303.063,298.667,256,298.667z" data-original="#000000" class="active-path" data-old_color="#000000" fill="#FFFFFF"/>
		</g>
	</g>
</g></g> </svg>
