<svg height="480pt" viewBox="0 0 480 480" width="480pt" xmlns="http://www.w3.org/2000/svg" xmlns:xlink="http://www.w3.org/1999/xlink"><linearGradient id="a"><stop offset="0" stop-color="#e93e3a"/><stop offset=".35" stop-color="#ed683c"/><stop offset=".7" stop-color="#f3903f"/><stop offset="1" stop-color="#fdc70c"/></linearGradient><linearGradient id="b" gradientUnits="userSpaceOnUse" x1="241.904" x2="238.72" xlink:href="#a" y1="495.744" y2="-12.328"/><linearGradient id="c" gradientUnits="userSpaceOnUse" x1="241.352" x2="238.168" xlink:href="#a" y1="495.744" y2="-12.328"/><linearGradient id="d" gradientUnits="userSpaceOnUse" x1="242.056" x2="238.872" xlink:href="#a" y1="495.744" y2="-12.328"/><linearGradient id="e" gradientUnits="userSpaceOnUse" x1="297.048" x2="293.864" xlink:href="#a" y1="495.4" y2="-12.672"/><linearGradient id="f" gradientUnits="userSpaceOnUse" x1="185.056" x2="181.872" xlink:href="#a" y1="496.096" y2="-11.976"/><linearGradient id="g" gradientUnits="userSpaceOnUse" x1="240.448" x2="237.264" xlink:href="#a" y1="495.752" y2="-12.32"/><linearGradient id="h" gradientUnits="userSpaceOnUse" x1="130.76" x2="127.576" xlink:href="#a" y1="496.44" y2="-11.632"/><linearGradient id="i" gradientUnits="userSpaceOnUse" x1="186.76" x2="183.576" xlink:href="#a" y1="496.088" y2="-11.984"/><linearGradient id="j" gradientUnits="userSpaceOnUse" x1="162.56" x2="159.376" xlink:href="#a" y1="496.24" y2="-11.832"/><linearGradient id="k" gradientUnits="userSpaceOnUse" x1="466.344" x2="463.16" xlink:href="#a" y1="494.336" y2="-13.736"/><linearGradient id="l" gradientUnits="userSpaceOnUse" x1="466.144" x2="462.96" xlink:href="#a" y1="494.336" y2="-13.736"/><linearGradient id="m" gradientUnits="userSpaceOnUse" x1="465.44" x2="462.264" xlink:href="#a" y1="494.344" y2="-13.728"/><linearGradient id="n" gradientUnits="userSpaceOnUse" x1="465.24" x2="462.064" xlink:href="#a" y1="494.344" y2="-13.728"/><linearGradient id="o" gradientUnits="userSpaceOnUse" x1="18.36" x2="15.176" xlink:href="#a" y1="497.144" y2="-10.928"/><linearGradient id="p" gradientUnits="userSpaceOnUse" x1="18.16" x2="14.976" xlink:href="#a" y1="497.144" y2="-10.928"/><linearGradient id="q" gradientUnits="userSpaceOnUse" x1="17.464" x2="14.28" xlink:href="#a" y1="497.152" y2="-10.928"/><linearGradient id="r" gradientUnits="userSpaceOnUse" x1="17.256" x2="14.08" xlink:href="#a" y1="497.152" y2="-10.92"/><path d="m416 24c0-13.253906-10.746094-24-24-24h-304c-13.253906 0-24 10.746094-24 24v88h-16v16h16v128h-16v16h16v184c0 13.253906 10.746094 24 24 24h304c13.253906 0 24-10.746094 24-24v-184h16v-16h-16v-128h16v-16h-16zm-80-8h16v29.601562l-1.34375-2.015624c-1.570312-2.101563-4.035156-3.335938-6.65625-3.335938s-5.085938 1.234375-6.65625 3.335938l-1.34375 2.015624zm64 240h-64v16h64v184c0 4.417969-3.582031 8-8 8h-304c-4.417969 0-8-3.582031-8-8v-184h64v-16h-64v-128h60.6875l29.65625 29.65625 11.3125-11.3125-32-32c-1.5-1.5-3.535156-2.34375-5.65625-2.34375h-64v-88c0-4.417969 3.582031-8 8-8h232v56c0 3.527344 2.304688 6.636719 5.679688 7.65625 3.375 1.023438 7.019531-.28125 8.976562-3.214844l9.34375-14.042968 9.34375 14.015624c1.953125 2.929688 5.59375 4.238282 8.964844 3.222657s5.683594-4.117188 5.691406-7.636719v-56h24c4.417969 0 8 3.582031 8 8v88h-64c-2.121094 0-4.15625.84375-5.65625 2.34375l-32 32 11.3125 11.3125 29.65625-29.65625h60.6875zm0 0" fill="url(#b)"/><path d="m171.542969 296h28.457031c3.03125 0 5.804688-1.710938 7.160156-4.425781l4.160156-8.316407 5.085938 15.269532c-5.390625 5.851562-8.390625 13.515625-8.40625 21.472656 0 16.480469 12.464844 48 32 48s32-31.519531 32-48c-.019531-7.953125-3.027344-15.613281-8.425781-21.457031l5.097656-15.277344 4.160156 8.328125c1.359375 2.707031 4.136719 4.414062 7.167969 4.40625h28.457031c5.242188 0 10.152344-2.570312 13.140625-6.878906 2.988282-4.308594 3.675782-9.808594 1.84375-14.722656l-16.058594-42.796876c-3.136718-8.300781-10.585937-14.203124-19.382812-15.363281v-46.757812c.03125-8.007813-2.371094-15.835938-6.886719-22.449219-23.96875-35.03125-36.875-35.03125-41.113281-35.03125s-17.152344 0-41.113281 35.023438c-4.511719 6.617187-6.914063 14.445312-6.886719 22.457031v46.757812c-8.789062 1.15625-16.238281 7.046875-19.382812 15.335938l-16.058594 42.824219c-1.832032 4.914062-1.144532 10.414062 1.84375 14.722656 2.988281 4.308594 7.898437 6.878906 13.140625 6.878906zm81.359375-16-2.671875 8h-20.460938l-2.671875-8zm-12.902344 72c-5.984375 0-16-20.039062-16-32 0-8.835938 7.164062-16 16-16s16 7.164062 16 16c0 12-10.015625 32-16 32zm52.398438-114.808594 16.058593 42.808594h-23.511719l-.699218-1.390625c2.304687-1.414063 3.722656-3.90625 3.753906-6.609375v-39.289062c2.019531.828124 3.609375 2.445312 4.398438 4.480468zm-84.398438-67.710937c-.023438-4.78125 1.402344-9.460938 4.089844-13.417969 15.191406-22.199219 24.902344-28.0625 27.910156-28.0625s12.71875 5.863281 27.910156 28.070312c2.691406 3.953126 4.117188 8.628907 4.089844 13.410157v94.519531h-24v-48h-16v48h-24zm-20.40625 67.710937c.792969-2.03125 2.386719-3.648437 4.40625-4.480468v39.289062c.03125 2.703125 1.449219 5.195312 3.753906 6.609375l-.699218 1.390625h-23.511719zm0 0" fill="url(#c)"/><path d="m240 192c13.253906 0 24-10.746094 24-24s-10.746094-24-24-24-24 10.746094-24 24 10.746094 24 24 24zm0-32c4.417969 0 8 3.582031 8 8s-3.582031 8-8 8-8-3.582031-8-8 3.582031-8 8-8zm0 0" fill="url(#d)"/><path d="m288 312h16v32h-16zm0 0" fill="url(#e)"/><path d="m176 312h16v32h-16zm0 0" fill="url(#f)"/><path d="m296 368c-13.253906 0-24 10.746094-24 24h16c0-4.417969 3.582031-8 8-8s8 3.582031 8 8c-.011719.460938-.046875.917969-.113281 1.375-.328125 3.019531 1.082031 5.964844 3.640625 7.601562 2.554687 1.640626 5.820312 1.6875 8.425781.128907 1.222656-.730469 2.621094-1.113281 4.046875-1.105469 4.417969 0 8 3.582031 8 8s-3.582031 8-8 8h-160c-4.417969 0-8-3.582031-8-8s3.582031-8 8-8c1.425781-.007812 2.824219.371094 4.046875 1.105469 2.613281 1.566406 5.886719 1.511719 8.449219-.136719 2.558594-1.648438 3.960937-4.605469 3.617187-7.632812-.070312-.441407-.105469-.886719-.113281-1.335938 0-4.417969 3.582031-8 8-8s8 3.582031 8 8h16c.007812-11.703125-8.425781-21.707031-19.964844-23.675781-11.535156-1.96875-22.808594 4.671875-26.683594 15.714843-6.574218-.320312-12.996093 2.054688-17.78125 6.578126-4.785156 4.523437-7.519531 10.800781-7.570312 17.382812.027344 2.730469.523438 5.4375 1.472656 8h-25.472656v16h256v-16h-25.472656c.949218-2.5625 1.445312-5.269531 1.472656-8-.019531-6.59375-2.742188-12.894531-7.539062-17.421875-4.792969-4.53125-11.234376-6.894531-17.820313-6.539063-3.378906-9.609374-12.453125-16.039062-22.640625-16.039062zm0 0" fill="url(#g)"/><path d="m112 48h32v16h-32zm0 0" fill="url(#h)"/><path d="m160 48h48v16h-48zm0 0" fill="url(#i)"/><path d="m112 80h96v16h-96zm0 0" fill="url(#j)"/><path d="m448 112h32v16h-32zm0 0" fill="url(#k)"/><path d="m448 144h32v16h-32zm0 0" fill="url(#l)"/><path d="m448 256h32v16h-32zm0 0" fill="url(#m)"/><path d="m448 288h32v16h-32zm0 0" fill="url(#n)"/><path d="m0 112h32v16h-32zm0 0" fill="url(#o)"/><path d="m0 144h32v16h-32zm0 0" fill="url(#p)"/><path d="m0 256h32v16h-32zm0 0" fill="url(#q)"/><path d="m0 288h32v16h-32zm0 0" fill="url(#r)"/></svg>