<?xml version="1.0"?>
<svg xmlns="http://www.w3.org/2000/svg" height="512px" viewBox="-141 0 511 511.99993" width="512px" class=""><g><path d="m132.882812 373.367188v-320.414063c0-29.246094-23.707031-52.953125-52.953124-52.953125-29.246094 0-52.953126 23.707031-52.953126 52.953125v320.414063c-32.695312 29.242187-35.496093 79.457031-6.25 112.15625 29.246094 32.695312 79.460938 35.496093 112.15625 6.25 32.699219-29.246094 35.496094-79.460938 6.25-112.15625-1.964843-2.199219-4.050781-4.285157-6.25-6.25zm0 0" fill="#b8eaee" data-original="#B8EAEE"/><path d="m97.582031 392.050781v-339.097656c0-9.75-7.902343-17.652344-17.652343-17.652344-9.746094 0-17.648438 7.902344-17.648438 17.652344v339.097656c-22.339844 9.746094-32.542969 35.757813-22.792969 58.09375 9.746094 22.335938 35.757813 32.539063 58.09375 22.792969 22.335938-9.75 32.539063-35.757812 22.792969-58.09375-4.453125-10.203125-12.59375-18.34375-22.792969-22.792969zm0 0" fill="#a8d6da" data-original="#A8D6DA"/><path d="m79.929688 476.582031c24.371093-.050781 44.085937-19.851562 44.035156-44.222656-.035156-17.476563-10.382813-33.285156-26.382813-40.308594v-224.363281h-35.300781v224.363281c-22.316406 9.796875-32.460938 35.832031-22.660156 58.144531 7.023437 16 22.832031 26.347657 40.308594 26.386719zm0 0" fill="#e06661" data-original="#E06661" class=""/><path d="m177.011719 317.71875h26.476562v17.652344h-26.476562zm0 0" fill="#fbb540" data-original="#FBB540" class=""/><path d="m177.011719 264.765625h52.953125v17.652344h-52.953125zm0 0" fill="#fd9226" data-original="#FD9226" class=""/><path d="m177.011719 211.8125h26.476562v17.652344h-26.476562zm0 0" fill="#fbb540" data-original="#FBB540" class=""/><path d="m177.011719 158.859375h52.953125v17.652344h-52.953125zm0 0" fill="#fd9226" data-original="#FD9226" class=""/><path d="m177.011719 105.90625h26.476562v17.652344h-26.476562zm0 0" fill="#fbb540" data-original="#FBB540" class=""/><path d="m177.011719 52.953125h52.953125v17.652344h-52.953125zm0 0" fill="#fd9226" data-original="#FD9226" class=""/><path d="m79.929688 450.105469c-9.746094 0-17.648438-7.90625-17.648438-17.652344h17.648438zm0 0" fill="#c7463b" data-original="#C7463B" class="active-path"/></g> </svg>
